# xmcd
#
# Track frame offsets:
#	150
#	16792
#	30882
#	48592
#	64090
#	85412
#	99932
#	116037
#	141952
#	156197
#	176950
#	197360
#	216212
#	235470
#	256207
#
# Disc length: 3678 seconds
#
# Revision: 1
# Processed by: cddbd v1.5.1PL0 Copyright (c) Steve Scherf et al.
# Submitted via: CDex 1.50Beta5
#
DISCID=c90e5c0f
DTITLE=ダウン・タウン・ブギウギ・バンド - 2000 BEST ダウン・タウン・ブギウギ・バンド・ベスト
DYEAR=2000
DGENRE=Rock
TTITLE0=知らず知らずのうちに
TTITLE1=青春すきま風
TTITLE2=恋のかけら
TTITLE3=裏切者の旅
TTITLE4=涙のシークレット・ラブ
TTITLE5=沖縄ベイ・ブルース
TTITLE6=愛しのティナ
TTITLE7=身も心も
TTITLE8=乾いた花
TTITLE9=昼顔の朝
TTITLE10=欲望の街
TTITLE11=涙のバイア・コンディオス
TTITLE12=夜霧のブルース
TTITLE13=しのび逢い
TTITLE14=あいつの好きそなブルース
EXTD=
EXTT0=
EXTT1=
EXTT2=
EXTT3=
EXTT4=
EXTT5=
EXTT6=
EXTT7=
EXTT8=
EXTT9=
EXTT10=
EXTT11=
EXTT12=
EXTT13=
EXTT14=
PLAYORDER=
